<svg width="34" height="34" viewBox="0 0 34 34" fill="none" xmlns="http://www.w3.org/2000/svg">
<path d="M16.9867 2.5334C8.77559 2.53008 2.125 9.17735 2.125 17.3818C2.125 23.8697 6.28535 29.3848 12.0793 31.4102C12.8596 31.6061 12.74 31.0516 12.74 30.673V28.0998C8.23438 28.6277 8.05176 25.6461 7.74961 25.1481C7.13867 24.1055 5.69434 23.8398 6.12598 23.3418C7.15195 22.8139 8.19785 23.4746 9.40977 25.2643C10.2863 26.5625 11.9963 26.3434 12.8629 26.1275C13.0521 25.3473 13.4572 24.65 14.015 24.1088C9.34668 23.2721 7.40098 20.4232 7.40098 17.0365C7.40098 15.393 7.94219 13.8822 9.00469 12.6637C8.32734 10.6549 9.06777 8.93496 9.16738 8.6793C11.0965 8.50664 13.102 10.0606 13.258 10.1834C14.3537 9.8879 15.6055 9.73184 17.0066 9.73184C18.4145 9.73184 19.6695 9.89454 20.7752 10.1934C21.1504 9.90782 23.0098 8.57305 24.8027 8.73575C24.899 8.99141 25.6229 10.6715 24.9854 12.6537C26.0611 13.8756 26.609 15.3996 26.609 17.0465C26.609 20.4398 24.65 23.292 19.9684 24.1154C20.3694 24.5098 20.6877 24.9801 20.905 25.4989C21.1222 26.0176 21.2338 26.5745 21.2334 27.1369V30.8723C21.26 31.1711 21.2334 31.4666 21.7314 31.4666C27.6117 29.4844 31.8451 23.9295 31.8451 17.3852C31.8451 9.17735 25.1912 2.5334 16.9867 2.5334Z" fill="#242424"/>
</svg>
