<svg width="34" height="34" viewBox="0 0 34 34" fill="none" xmlns="http://www.w3.org/2000/svg">
<path d="M17 2.125C8.78555 2.125 2.125 8.78555 2.125 17C2.125 25.2145 8.78555 31.875 17 31.875C25.2145 31.875 31.875 25.2145 31.875 17C31.875 8.78555 25.2145 2.125 17 2.125ZM12.0029 19.2645C12.0029 20.1875 11.2559 20.9379 10.3328 20.9379C9.89121 20.9379 9.46621 20.7619 9.15078 20.4465C8.83867 20.1311 8.66269 19.7061 8.66269 19.2645C8.66269 18.3414 9.40977 17.591 10.3328 17.591H12.0029V19.2645ZM16.4521 23.727C16.4521 24.65 15.7051 25.4004 14.782 25.4004C13.859 25.4004 13.1119 24.65 13.1119 23.727V19.2645C13.1119 18.3414 13.859 17.591 14.782 17.591C15.2236 17.591 15.6486 17.767 15.9641 18.0824C16.2795 18.3979 16.4521 18.8229 16.4521 19.2645V23.727ZM14.7854 16.4754H10.3361C9.41309 16.4754 8.66602 15.725 8.66602 14.802C8.66602 13.8789 9.41309 13.1285 10.3361 13.1285H14.7854C15.7084 13.1285 16.4555 13.8789 16.4555 14.802C16.4521 15.7283 15.7051 16.4754 14.7854 16.4754ZM14.7854 12.0129C14.3438 12.0129 13.9188 11.8369 13.6033 11.5215C13.2879 11.2061 13.1152 10.7844 13.1152 10.3395C13.1152 9.41641 13.8623 8.66602 14.7854 8.66602C15.7084 8.66602 16.4555 9.41641 16.4555 10.3395V12.0129H14.7854ZM17.5645 10.3395C17.5645 9.41641 18.3115 8.66602 19.2346 8.66602C20.1576 8.66602 20.9047 9.41641 20.9047 10.3395V14.802C20.9047 15.725 20.1576 16.4754 19.2346 16.4754C18.3115 16.4754 17.5645 15.725 17.5645 14.802V10.3395ZM19.2346 25.4004C18.3115 25.4004 17.5645 24.65 17.5645 23.727V22.0535H19.2346C20.1576 22.0535 20.9047 22.8039 20.9047 23.727C20.9047 24.65 20.1576 25.4004 19.2346 25.4004ZM23.6838 20.9379H19.2346C18.793 20.9379 18.368 20.7619 18.0525 20.4465C17.7371 20.1311 17.5645 19.7094 17.5645 19.2645C17.5645 18.3414 18.3115 17.591 19.2346 17.591H23.6838C24.6068 17.591 25.3539 18.3414 25.3539 19.2645C25.3539 20.1875 24.6068 20.9379 23.6838 20.9379ZM23.6838 16.4754H22.0137V14.802C22.0137 13.8789 22.7607 13.1285 23.6838 13.1285C24.6068 13.1285 25.3539 13.8789 25.3539 14.802C25.3539 15.725 24.6068 16.4754 23.6838 16.4754Z" fill="#242424"/>
</svg>
