<svg width="34" height="34" viewBox="0 0 34 34" fill="none" xmlns="http://www.w3.org/2000/svg">
<path d="M29.2188 3.71875H4.78125C4.19355 3.71875 3.71875 4.19355 3.71875 4.78125V29.2188C3.71875 29.8064 4.19355 30.2812 4.78125 30.2812H29.2188C29.8064 30.2812 30.2812 29.8064 30.2812 29.2188V4.78125C30.2812 4.19355 29.8064 3.71875 29.2188 3.71875ZM18.2119 20.6789C16.7543 22.7309 13.8258 23.3285 11.5414 22.4486C9.25039 21.5754 7.62344 19.1549 7.81934 16.6879C7.86914 13.6697 10.6482 11.0234 13.6664 11.1264C15.1141 11.06 16.4754 11.6875 17.5844 12.574C17.1096 13.1119 16.6215 13.6299 16.0969 14.1113C14.7654 13.1916 12.8695 12.9293 11.5381 13.9918C9.63223 15.31 9.5459 18.4211 11.3787 19.8389C13.1617 21.4559 16.5318 20.6523 17.0266 18.1754C15.9109 18.1588 14.7887 18.1754 13.673 18.1389C13.6697 17.4715 13.6664 16.8074 13.6697 16.14C15.5357 16.1334 17.4051 16.1301 19.2744 16.1467C19.384 17.7172 19.1748 19.384 18.2119 20.6789ZM26.2637 17.8135C25.7059 17.8201 25.148 17.8234 24.5902 17.8268C24.5836 18.3846 24.5803 18.9424 24.5803 19.5002H22.9102C22.9035 18.9424 22.9035 18.3879 22.9002 17.8301C22.3424 17.8234 21.7846 17.8201 21.2268 17.8135V16.15C21.7846 16.1434 22.3424 16.14 22.9002 16.14C22.9035 15.5822 22.9102 15.0244 22.9135 14.4666H24.5803L24.5902 16.14C25.148 16.1467 25.7059 16.1467 26.2637 16.15V17.8135Z" fill="#242424"/>
</svg>
