<svg width="34" height="34" viewBox="0 0 34 34" fill="none" xmlns="http://www.w3.org/2000/svg">
<path d="M29.2188 3.71875H4.78125C4.19355 3.71875 3.71875 4.19355 3.71875 4.78125V29.2188C3.71875 29.8064 4.19355 30.2812 4.78125 30.2812H29.2188C29.8064 30.2812 30.2812 29.8064 30.2812 29.2188V4.78125C30.2812 4.19355 29.8064 3.71875 29.2188 3.71875ZM11.5979 26.3533H7.65664V13.6764H11.5979V26.3533ZM9.62891 11.9432C9.1771 11.9432 8.73544 11.8092 8.35978 11.5582C7.98411 11.3072 7.69132 10.9504 7.51842 10.533C7.34552 10.1156 7.30028 9.65625 7.38842 9.21313C7.47657 8.77 7.69413 8.36297 8.01361 8.04349C8.33309 7.72402 8.74012 7.50645 9.18325 7.41831C9.62637 7.33016 10.0857 7.3754 10.5031 7.5483C10.9205 7.7212 11.2773 8.014 11.5283 8.38966C11.7793 8.76532 11.9133 9.20698 11.9133 9.65879C11.91 10.9205 10.8873 11.9432 9.62891 11.9432ZM26.3533 26.3533H22.4154V20.1875C22.4154 18.7166 22.3889 16.8273 20.3668 16.8273C18.3182 16.8273 18.0027 18.4277 18.0027 20.0812V26.3533H14.0682V13.6764H17.8467V15.4096H17.8998C18.4244 14.4135 19.7094 13.3609 21.6285 13.3609C25.6195 13.3609 26.3533 15.9873 26.3533 19.4006V26.3533Z" fill="#242424"/>
</svg>
