<svg width="34" height="34" viewBox="0 0 34 34" fill="none" xmlns="http://www.w3.org/2000/svg">
<path d="M30.8125 8.44355C29.7965 8.88183 28.6908 9.19726 27.552 9.32012C28.7344 8.61766 29.6198 7.50789 30.0422 6.19902C28.9327 6.85909 27.7172 7.32192 26.4496 7.56699C25.9199 7.00063 25.2791 6.54945 24.5674 6.24155C23.8556 5.93365 23.088 5.77563 22.3125 5.77734C19.1748 5.77734 16.6514 8.3207 16.6514 11.4418C16.6514 11.8801 16.7045 12.3184 16.7908 12.74C12.0926 12.4943 7.90237 10.2498 5.11663 6.81328C4.609 7.68025 4.34301 8.66742 4.34631 9.67207C4.34631 11.6377 5.34573 13.3709 6.86975 14.3902C5.97162 14.3549 5.09452 14.108 4.30979 13.6697V13.7395C4.30979 16.492 6.25549 18.773 8.84866 19.2977C8.36176 19.4241 7.86089 19.4888 7.35784 19.4902C6.98928 19.4902 6.64065 19.4537 6.2887 19.4039C7.00588 21.6484 9.09436 23.2787 11.5813 23.3318C9.63557 24.8559 7.19846 25.7523 4.55217 25.7523C4.07737 25.7523 3.63909 25.7357 3.1842 25.6826C5.69436 27.293 8.67268 28.2227 11.8801 28.2227C22.2926 28.2227 27.9903 19.5965 27.9903 12.1092C27.9903 11.8635 27.9903 11.6178 27.9737 11.3721C29.076 10.5652 30.0422 9.56582 30.8125 8.44355Z" fill="#242424"/>
</svg>
